<svg xmlns="http://www.w3.org/2000/svg" viewBox="0 0 1440 320">
  <path fill="#251d1d" fill-opacity="1" d="M0,320L30,282.7C60,245,120,171,180,122.7C240,75,300,53,360,48C420,43,480,53,540,85.3C600,117,660,171,720,165.3C780,160,840,96,900,80C960,64,1020,96,1080,138.7C1140,181,1200,235,1260,234.7C1320,235,1380,181,1410,154.7L1440,128L1440,0L1410,0C1380,0,1320,0,1260,0C1200,0,1140,0,1080,0C1020,0,960,0,900,0C840,0,780,0,720,0C660,0,600,0,540,0C480,0,420,0,360,0C300,0,240,0,180,0C120,0,60,0,30,0L0,0Z"></path>
</svg>
